<svg width="40" height="40" viewBox="0 0 40 40" fill="none" xmlns="http://www.w3.org/2000/svg">
<path d="M2.5 2.5H37.5V37.5H2.5V2.5Z" fill="#F5DE19"/>
<path d="M26.0111 29.8439C26.3098 30.4493 26.7732 30.9581 27.3481 31.3119C27.923 31.6657 28.5861 31.8501 29.2611 31.8439C30.6236 31.8439 31.4948 31.1627 31.4948 30.2189C31.4948 29.0939 30.5998 28.6914 29.0998 28.0352L28.2773 27.6827C25.9023 26.6714 24.3273 25.4052 24.3273 22.7277C24.3273 20.2614 26.2023 18.3827 29.1436 18.3827C30.0957 18.3141 31.0469 18.5273 31.8787 18.9956C32.7105 19.464 33.386 20.1668 33.8211 21.0164L31.2498 22.6602C31.0822 22.2389 30.7906 21.8786 30.4136 21.6268C30.0365 21.375 29.5919 21.2436 29.1386 21.2502C28.9408 21.2304 28.741 21.252 28.5521 21.3137C28.3631 21.3753 28.189 21.4757 28.041 21.6083C27.8929 21.741 27.7741 21.903 27.6921 22.0841C27.6102 22.2652 27.5668 22.4614 27.5648 22.6602C27.5648 23.6464 28.1761 24.0464 29.5873 24.6602L30.4098 25.0127C33.2048 26.2114 34.7848 27.4327 34.7848 30.1789C34.7848 33.1402 32.4586 34.7627 29.3348 34.7627C28.1178 34.8394 26.9046 34.5628 25.8412 33.966C24.7778 33.3692 23.9096 32.4777 23.3411 31.3989L26.0111 29.8439ZM14.3923 30.1289C14.9086 31.0452 15.3786 31.8202 16.5086 31.8202C17.5886 31.8202 18.2711 31.3977 18.2711 29.7539V18.5702H21.5598V29.7977C21.5598 33.2027 19.5598 34.7527 16.6486 34.7527C15.6195 34.8089 14.5975 34.5525 13.717 34.017C12.8364 33.4816 12.1384 32.6922 11.7148 31.7527L14.3923 30.1289Z" fill="black"/>
</svg>
