<svg width="40" height="40" viewBox="0 0 40 40" fill="none" xmlns="http://www.w3.org/2000/svg">
<path d="M7.37711 34.0013L4.56836 2.5H35.4309L32.6184 33.9963L19.9809 37.5L7.37711 34.0013Z" fill="#E44F26"/>
<path d="M20 34.8224L30.2125 31.9912L32.615 5.07617H20V34.8224Z" fill="#F1662A"/>
<path d="M20 16.7585H14.8875L14.535 12.8022H20V8.93848H10.3125L10.405 9.97598L11.3538 20.6222H20V16.7585ZM20 26.7922L19.9825 26.7972L15.68 25.636L15.405 22.5547H11.5262L12.0675 28.6197L19.9825 30.8172L20 30.8122V26.7922Z" fill="#EBEBEB"/>
<path d="M19.9863 16.7585V20.6222H24.7438L24.2963 25.6335L19.9863 26.796V30.816L27.9076 28.6197L27.9651 27.9672L28.8726 17.796L28.9676 16.7585H19.9863ZM19.9863 8.93848V12.8022H29.3188L29.3963 11.9347L29.5726 9.97598L29.6651 8.93848H19.9863Z" fill="white"/>
</svg>
