<svg width="40" height="22" viewBox="0 0 40 22" fill="none" xmlns="http://www.w3.org/2000/svg">
<path d="M0 19.5352H1.32563V14.3018L3.3775 18.8637C3.61906 19.4168 3.95 19.6109 4.60063 19.6109C5.25125 19.6109 5.56875 19.4168 5.81031 18.8637L7.86219 14.3018V19.5349H9.18781V14.3106C9.18781 13.8002 8.98406 13.5537 8.56281 13.4268C7.55562 13.1131 6.88063 13.384 6.57438 14.064L4.56156 18.5671L2.61219 14.064C2.31938 13.384 1.63094 13.1131 0.625 13.4268C0.20375 13.5537 0 13.8002 0 14.3106L0 19.5352ZM10.2906 15.2749H11.615V18.1584C11.6028 18.3146 11.665 18.6821 12.3913 18.6943H15.2734V15.2602H16.6016C16.6078 15.2602 16.5991 19.9427 16.5991 19.9624C16.6063 21.1171 15.1672 21.3674 14.5031 21.3871H10.3188V20.4959L14.5106 20.4946C15.3637 20.4056 15.2625 19.9806 15.2625 19.839V19.4912H12.4462C11.1353 19.479 10.3016 18.9065 10.2906 18.2484C10.2894 18.1887 10.3188 15.3043 10.2906 15.2749ZM17.6222 19.5352H21.4331C21.8787 19.5352 22.3122 19.4412 22.6562 19.2802C23.23 19.0177 23.5094 18.6602 23.5094 18.1927V17.2246C23.5094 16.8424 23.1919 16.4849 22.5669 16.2481C22.2359 16.1199 21.8272 16.0527 21.4328 16.0527H19.8263C19.2916 16.0527 19.0366 15.8915 18.9731 15.5352C18.9609 15.4924 18.9609 15.4584 18.9609 15.4156V14.8124C18.9609 14.7784 18.9609 14.744 18.9731 14.7015C19.0366 14.4306 19.1769 14.3537 19.6481 14.3109L19.7763 14.3024H23.5603V13.4199H19.84C19.3053 13.4199 19.0247 13.454 18.7694 13.5299C17.9797 13.7765 17.6353 14.1671 17.6353 14.8471V15.6199C17.6353 16.2143 18.3103 16.7246 19.4444 16.8431C19.5725 16.8515 19.6994 16.8602 19.8266 16.8602H21.2034C21.2547 16.8602 21.3047 16.8602 21.3438 16.8687C21.7638 16.9027 21.9419 16.9796 22.07 17.1324C22.1359 17.1934 22.1737 17.2802 22.1712 17.3693V18.1434C22.1712 18.2362 22.1078 18.3559 21.9809 18.4571C21.8662 18.5596 21.6747 18.6268 21.4206 18.644L21.2803 18.6524H17.6222V19.5352ZM31.7775 17.9971C31.7775 18.9065 32.4538 19.4156 33.8159 19.5181C33.9441 19.5265 34.0709 19.5352 34.1994 19.5352H37.6528V18.6515H34.1738C33.3963 18.6515 33.1031 18.4562 33.1031 17.9887V13.4181H31.7788V17.9968L31.7775 17.9971ZM24.3556 18.0434V14.8927C24.3556 14.0931 24.9184 13.6074 26.0291 13.4546C26.1476 13.4375 26.2671 13.429 26.3869 13.429H28.9016C29.0297 13.429 29.1444 13.4374 29.2728 13.4546C30.3837 13.6071 30.9453 14.0931 30.9453 14.8927V18.0434C30.9453 18.6927 30.7072 19.0396 30.1569 19.2665L31.4631 20.4446H29.9237L28.8678 19.4912L27.8047 19.5584H26.3875C26.1241 19.5576 25.8621 19.5205 25.6087 19.4484C24.7653 19.219 24.3563 18.7759 24.3563 18.0434H24.3556ZM25.7862 17.9665C25.7862 18.0093 25.7997 18.0518 25.8119 18.1034C25.8888 18.4696 26.2344 18.6734 26.7566 18.6734H27.9603L26.8544 17.6749H28.3937L29.3581 18.5465C29.5362 18.4512 29.6534 18.3071 29.6937 18.1206C29.7072 18.0777 29.7072 18.0352 29.7072 17.9924V14.9712C29.7072 14.9371 29.7072 14.8943 29.6937 14.8515C29.6169 14.5109 29.2725 14.3156 28.7625 14.3156H26.7569C26.1697 14.3156 25.7866 14.5706 25.7866 14.9712L25.7862 17.9665ZM38.8184 11.9521C38.0044 11.9302 37.3816 12.0059 36.8494 12.2306C36.6981 12.294 36.4562 12.2952 36.4319 12.4846C36.515 12.5724 36.5284 12.7031 36.5944 12.8093C36.7212 13.0156 36.9362 13.2902 37.1278 13.4343C37.3353 13.5931 37.5513 13.7615 37.7759 13.8981C38.1738 14.1409 38.6194 14.2802 39.0041 14.5231C39.23 14.6671 39.4544 14.8477 39.6753 15.0102C39.7841 15.0896 39.8572 15.2152 40 15.2652V15.2421C39.9256 15.1468 39.9059 15.0162 39.8375 14.9174L39.5359 14.6159C39.2419 14.2252 38.8681 13.8821 38.4703 13.5965C38.1528 13.3693 37.445 13.0618 37.3119 12.6931L37.2887 12.6699C37.5134 12.6456 37.7772 12.5637 37.9834 12.5087C38.3325 12.4146 38.6437 12.439 39.0028 12.3462L39.49 12.2059V12.1143C39.3081 11.9274 39.1787 11.6809 38.9797 11.5112C38.4622 11.0706 37.8956 10.6287 37.3122 10.2599C36.9888 10.0562 36.5897 9.92431 36.2466 9.75087C36.1319 9.69243 35.9291 9.66306 35.8522 9.56525C35.6728 9.33587 35.575 9.04525 35.4359 8.77775C35.1392 8.20006 34.8612 7.61298 34.6022 7.01743C34.4266 6.61587 34.3116 6.219 34.0919 5.859C33.0409 4.12931 31.9081 3.08556 30.1537 2.06025C29.7816 1.84181 29.3309 1.75618 28.8575 1.644L28.0922 1.59775C27.9372 1.53181 27.7759 1.3415 27.6297 1.24993C27.0487 0.882433 25.5581 0.0843084 25.1272 1.134C24.8562 1.79681 25.5338 2.44368 25.7766 2.77962C25.9463 3.01525 26.1647 3.279 26.2856 3.54368C26.3662 3.71712 26.3797 3.89149 26.4481 4.07587C26.6166 4.52993 26.7631 5.02306 26.9816 5.44306C27.0916 5.65556 27.2122 5.879 27.3516 6.06806C27.4369 6.184 27.5834 6.2365 27.6066 6.41587C27.4638 6.61618 27.4553 6.92618 27.3747 7.17993C27.0122 8.32118 27.1488 9.73962 27.6763 10.5856C27.8375 10.8443 28.2181 11.4009 28.7419 11.1874C29.1997 11.0006 29.0972 10.4234 29.2278 9.91306C29.2584 9.79837 29.24 9.71275 29.2975 9.63587V9.659L29.715 10.4927C30.0237 10.9896 30.5706 11.5084 31.0347 11.8587C31.2762 12.0406 31.4656 12.3556 31.7769 12.4618V12.4374H31.7537C31.6928 12.3446 31.5988 12.3056 31.5219 12.2299C31.34 12.0518 31.1384 11.8309 30.9897 11.6268C30.5672 11.0543 30.1937 10.4268 29.8544 9.77368C29.6919 9.46243 29.5503 9.11806 29.4137 8.80087C29.3612 8.67868 29.3625 8.49337 29.2525 8.43087C29.1025 8.66275 28.8816 8.85087 28.7653 9.12556C28.5797 9.56368 28.5566 10.0996 28.4869 10.654L28.4406 10.6771C28.1184 10.599 28.0047 10.2671 27.8853 9.98243C27.5813 9.26212 27.5253 8.10118 27.7925 7.27243C27.8609 7.05775 28.1734 6.38118 28.0466 6.18368C27.9869 5.98587 27.7878 5.87118 27.6766 5.71993C27.5311 5.51712 27.4068 5.29994 27.3056 5.07181C27.0578 4.509 26.9419 3.87931 26.6806 3.3115C26.5562 3.03931 26.345 2.76462 26.1716 2.52306C25.9788 2.25587 25.7638 2.05931 25.615 1.73556C25.5625 1.62087 25.4906 1.4365 25.5688 1.31806C25.5931 1.23868 25.6297 1.20587 25.7078 1.18025C25.8422 1.0765 26.2169 1.21431 26.3559 1.27181C26.7281 1.42681 27.0384 1.57337 27.3531 1.78212C27.5031 1.88212 27.6559 2.07618 27.8391 2.12993H28.0478C28.3737 2.20431 28.7388 2.15181 29.0441 2.24462C29.5825 2.40806 30.0659 2.66337 30.5028 2.94056C31.8381 3.78275 32.9297 4.98275 33.6766 6.41462C33.7975 6.64525 33.8488 6.86493 33.955 7.10931C34.1688 7.60243 34.4372 8.11025 34.6497 8.59243C34.8622 9.07462 35.0684 9.55931 35.3675 9.95962C35.525 10.1696 36.1341 10.2818 36.41 10.399C36.6041 10.4809 36.9216 10.5662 37.1047 10.6774C37.4562 10.8887 37.7956 11.1399 38.1253 11.3721C38.2887 11.4893 38.7944 11.7434 38.82 11.9518L38.8184 11.9521ZM28.4631 3.1265C28.323 3.12424 28.1831 3.13978 28.0469 3.17275V3.19587H28.07C28.1506 3.36306 28.2934 3.47056 28.3934 3.61337L28.6253 4.09931L28.6484 4.07743C28.7925 3.97618 28.8572 3.81368 28.8572 3.56712C28.7987 3.50618 28.7913 3.43056 28.7412 3.35837C28.6753 3.26181 28.5475 3.20837 28.4631 3.1265Z" fill="black"/>
</svg>
