<svg width="40" height="40" viewBox="0 0 40 40" fill="none" xmlns="http://www.w3.org/2000/svg">
<path d="M5.87918 35.6638L2.7373 0.422852H37.2623L34.1173 35.6585L19.9789 39.5782L5.87918 35.6638Z" fill="#1572B6"/>
<path d="M20 36.5818L31.4247 33.4143L34.1125 3.30371H20V36.5818Z" fill="#33A9DC"/>
<path d="M20 16.0714H25.7194L26.1144 11.6454H20V7.32324H30.8381L30.7344 8.48293L29.6719 20.3936H20V16.0714Z" fill="white"/>
<path d="M20.0253 27.2969L20.0063 27.3025L15.1928 26.0029L14.885 22.5557H10.5469L11.1522 29.3422L20.0056 31.7994L20.0253 31.7938V27.2969Z" fill="#EBEBEB"/>
<path d="M25.352 20.2109L24.8314 25.9991L20.0107 27.3003V31.7972L28.8714 29.3416L28.9364 28.6112L29.6882 20.2109H25.352Z" fill="white"/>
<path d="M20.0154 7.32324V11.6454H9.57535L9.48879 10.6742L9.29191 8.48293L9.18848 7.32324H20.0154ZM20.0007 16.072V20.3942H15.2479L15.1613 19.4229L14.9641 17.2317L14.861 16.072H20.0007Z" fill="#EBEBEB"/>
</svg>
