<svg width="40" height="40" viewBox="0 0 40 40" fill="none" xmlns="http://www.w3.org/2000/svg">
<g clip-path="url(#clip0_743_1149)">
<path d="M0.0154057 0.55373C-0.0669109 0.220448 0.242124 -0.077158 0.572008 0.0179771L10.1828 2.78493C10.2691 2.78472 10.3536 2.8091 10.4265 2.8552L29.381 8.31219C29.4594 8.31373 29.5369 8.33612 29.6043 8.37643L39.2157 11.1437C39.5459 11.2388 39.6492 11.6558 39.4015 11.894L10.3976 39.7934C10.1501 40.0316 9.73757 39.9123 9.65525 39.5787L4.84413 20.102C4.8377 20.082 4.83265 20.0615 4.829 20.0408L0.0154057 0.55373ZM8.24799 30.1614L10.336 38.6144L16.6239 32.5658L8.24799 30.1614ZM14.7249 23.4767L8.63703 29.3446L16.747 31.673L14.7249 23.4767ZM15.6285 23.414L17.6443 31.5843L23.7155 25.7443L15.6285 23.414ZM5.88799 20.6072L7.91255 28.8038L13.9932 22.9428L5.88799 20.6072ZM21.9041 16.5488L15.7186 22.5111L23.9615 24.8864L21.9041 16.5488ZM22.7708 16.3367L24.8282 24.674L31.0307 18.7079L22.7708 16.3367ZM12.3336 13.7821L6.13479 19.7497L14.3929 22.1292L12.3336 13.7821ZM13.1969 13.5571L15.2191 21.7533L21.307 15.8852L13.1969 13.5571ZM3.45911 10.7737L5.51703 19.1059L11.7113 13.1426L3.45911 10.7737ZM29.1258 9.6169L23.038 15.4848L31.1479 17.8132L29.1258 9.6169ZM29.9958 9.41767L32.0468 17.7306L38.2256 11.7871L29.9958 9.41767ZM19.5155 6.86848L13.4551 12.7028L21.5269 15.0198L19.5155 6.86848ZM20.3805 6.64933L22.4055 14.8554L28.4951 8.98554L20.3805 6.64933ZM9.93834 4.08964L3.85046 9.95775L11.9604 12.2858L9.93834 4.08964ZM10.8091 3.89365L12.8262 12.0693L18.8993 6.22292L10.8091 3.89365ZM1.06668 1.08887L3.12429 9.41859L9.30529 3.46076L1.06668 1.08887Z" fill="black"/>
</g>
<defs>
<clipPath id="clip0_743_1149">
<rect width="39.54" height="40" fill="white"/>
</clipPath>
</defs>
</svg>
