<svg width="40" height="40" viewBox="0 0 40 40" fill="none" xmlns="http://www.w3.org/2000/svg">
<g clip-path="url(#clip0_743_1184)">
<path d="M7.08344 0.5H32.9166C36.8334 0.5 40 3.66656 40 7.58344V32.4166C40 36.3334 36.8334 39.5 32.9166 39.5H7.08344C3.16656 39.5 0 36.3334 0 32.4166V7.58344C0 3.66656 3.16656 0.5 7.08344 0.5Z" fill="#001E36"/>
<path d="M14.3334 10.418C13.8334 10.418 13.3334 10.418 12.8169 10.4348C12.3 10.4514 11.8166 10.4514 11.3666 10.4683C10.9166 10.4848 10.5 10.4848 10.1 10.5014C9.71656 10.518 9.45 10.518 9.16656 10.518C9.05 10.518 9 10.5845 9 10.7014V27.8514C9 28.0014 9.06656 28.0683 9.2 28.0683H12.4334C12.55 28.0514 12.6334 27.9514 12.6166 27.8348V22.4848C12.9331 22.4848 13.1666 22.4848 13.3334 22.5014C13.5 22.518 13.7666 22.518 14.1666 22.518C15.5334 22.518 16.7834 22.368 17.9166 21.9514C19 21.5514 19.9334 20.8514 20.6 19.918C21.2667 18.9846 21.6 17.8013 21.6 16.368C21.6 15.618 21.4669 14.9014 21.2169 14.2014C20.952 13.4882 20.537 12.8403 20 12.3014C19.3662 11.6857 18.6033 11.2187 17.7666 10.9345C16.8331 10.5845 15.7 10.418 14.3334 10.418ZM14.7053 13.7008C15.2991 13.712 15.8772 13.8158 16.4166 14.0345C16.9 14.218 17.3 14.5514 17.5834 14.9845C17.8493 15.4328 17.9822 15.9474 17.9669 16.4683C17.9669 17.2014 17.8 17.7683 17.45 18.1848C17.0831 18.6014 16.6166 18.9183 16.0834 19.0683C15.4666 19.2683 14.8166 19.368 14.1666 19.368H13.2831C13.0831 19.368 12.8669 19.3514 12.6334 19.3348V13.7348C12.75 13.718 12.9834 13.7014 13.3169 13.7183C13.6334 13.7014 14.0166 13.7014 14.45 13.7014C14.5354 13.6993 14.6205 13.6991 14.7053 13.7008ZM28.6834 14.5517C27.5 14.5517 26.5166 14.7348 25.7334 15.1348C25.0169 15.4683 24.4 16.0014 23.9834 16.668C23.6169 17.2848 23.4166 17.968 23.4166 18.6848C23.4023 19.2745 23.534 19.8584 23.8 20.3848C24.1117 20.9454 24.5445 21.4293 25.0669 21.8014C25.8 22.3029 26.5956 22.7063 27.4334 23.0014C28.25 23.318 28.8 23.568 29.0669 23.7845C29.3334 24.0014 29.4669 24.218 29.4669 24.4514C29.4669 24.7514 29.2834 25.0348 29.0169 25.1514C28.7169 25.3014 28.2669 25.3848 27.6334 25.3848C26.9669 25.3848 26.3 25.3014 25.6666 25.1348C24.9392 24.9724 24.2419 24.6969 23.6 24.3183C23.55 24.2848 23.5 24.2683 23.45 24.3017C23.4 24.3348 23.3834 24.4014 23.3834 24.4514V27.3514C23.3669 27.4848 23.45 27.6014 23.5669 27.668C24.1073 27.9205 24.679 28.0999 25.2669 28.2014C26.0169 28.3514 26.7666 28.418 27.5331 28.418C28.7331 28.418 29.7334 28.2348 30.55 27.8848C31.3 27.5848 31.95 27.0683 32.4166 26.4014C32.8535 25.7458 33.0803 24.9726 33.0666 24.1848C33.083 23.5898 32.9514 22.9999 32.6834 22.4683C32.3666 21.9014 31.9166 21.4348 31.3666 21.0848C30.562 20.5796 29.7005 20.1711 28.8 19.868C28.3979 19.7015 28.003 19.518 27.6166 19.318C27.4 19.2014 27.2 19.0514 27.05 18.868C26.95 18.7345 26.8834 18.5848 26.8834 18.4348C26.8834 18.2848 26.9334 18.1183 27.0166 17.9848C27.1334 17.8183 27.3166 17.7014 27.5331 17.6514C27.85 17.5683 28.2 17.518 28.5331 17.5345C29.1666 17.5345 29.7831 17.618 30.4 17.7514C30.9669 17.868 31.5 18.0514 32 18.3183C32.0666 18.3514 32.15 18.3514 32.3 18.3183C32.326 18.299 32.3472 18.2738 32.3617 18.2448C32.3762 18.2158 32.3836 18.1838 32.3834 18.1514V15.4348C32.3834 15.368 32.3666 15.3014 32.35 15.2348C32.3166 15.1683 32.25 15.1014 32.1834 15.0848C31.7237 14.897 31.2421 14.7681 30.75 14.7014C30.0657 14.6018 29.375 14.5519 28.6834 14.5517Z" fill="#31A8FF"/>
</g>
<defs>
<clipPath id="clip0_743_1184">
<rect width="40" height="40" fill="white"/>
</clipPath>
</defs>
</svg>
